<?xml version="1.0" encoding="UTF-8"?><svg id="Capa_2" xmlns="http://www.w3.org/2000/svg" viewBox="0 0 427.22 79.75"><defs><style>.cls-1{fill:#083378;}</style></defs><g id="FONDOS"><g><g><path class="cls-1" d="M91.06,21.28c0-.55,.5-.98,1.05-.98h1.35l21.76,21.01h.06V21.88c0-.55,.43-1.05,1.04-1.05h6.54c.55,0,1.04,.5,1.04,1.05V58.71c0,.55-.49,.97-1.04,.97h-.87c-.17,0-.6-.15-.71-.27l-21.53-21.72h-.07v20.41c0,.56-.43,1.05-1.03,1.05h-6.48c-.55,0-1.04-.49-1.04-1.05l-.06-36.83Z"/><path class="cls-1" d="M133.94,21.88c0-.55,.48-1.05,1.04-1.05h6.7c.61,0,1.03,.5,1.03,1.05v22.17c0,3.83,2.84,6.89,6.72,6.89s6.82-3.06,6.82-6.89V21.88c0-.55,.43-1.05,1.02-1.05h6.71c.54,0,1.05,.5,1.05,1.05v22.6c0,8.32-6.99,15.2-15.6,15.2s-15.49-6.88-15.49-15.2V21.88Z"/><path class="cls-1" d="M178.93,21.16c.05-.49,.55-.87,.98-.87h.87c.28,0,.77,.21,.93,.53l12.66,23.65h.1l12.64-23.65c.16-.32,.65-.53,.92-.53h.89c.41,0,.92,.38,.97,.87l6.16,36.79c.12,.71-.39,1.2-1.03,1.2h-6.44c-.5,0-.98-.44-1.03-.88l-2.46-16.92h-.11l-9.15,17.74c-.16,.32-.66,.59-.94,.59h-.98c-.32,0-.76-.27-.92-.59l-9.21-17.74h-.12l-2.4,16.92c-.05,.44-.49,.88-1.03,.88h-6.43c-.65,0-1.14-.49-1.03-1.2l6.16-36.79Z"/><path class="cls-1" d="M224.41,21.88c0-.55,.43-1.05,1.03-1.05h22.58c.61,0,1.03,.5,1.03,1.05v5.96c0,.55-.43,1.04-1.03,1.04h-15.11v6.79h12.43c.54,0,1.04,.49,1.04,1.04v5.97c0,.6-.5,1.04-1.04,1.04h-12.43v7.39h15.11c.61,0,1.03,.49,1.03,1.04v5.96c0,.56-.43,1.05-1.03,1.05h-22.58c-.6,0-1.03-.49-1.03-1.05V21.88Zm7.26-4.93l-1.16-2.3c-.2-.43,.07-.83,.33-1.03l9.26-5.7c.34-.21,1.15-.33,1.42,.17l1.85,3.22c.43,.81,.11,1.37-.34,1.64l-9.9,4.5c-.72,.44-1.19,.05-1.47-.5Z"/><path class="cls-1" d="M257.74,21.88c0-.55,.43-1.05,1.03-1.05h16.3c6.55,0,11.89,5.31,11.89,11.83,0,5.04-3.34,9.09-8.08,11l7.47,13.9c.38,.71,0,1.6-.92,1.6h-7.26c-.44,0-.76-.28-.87-.49l-7.27-14.51h-3.75v13.96c0,.56-.48,1.05-1.03,1.05h-6.49c-.6,0-1.03-.49-1.03-1.05V21.88Zm16.62,15.32c2.24,0,4.16-2.09,4.16-4.38s-1.92-4.17-4.16-4.17h-8.07v8.55h8.07Z"/><path class="cls-1" d="M295.65,21.88c0-.55,.49-1.05,1.03-1.05h6.54c.56,0,1.04,.5,1.04,1.05V58.1c0,.56-.48,1.05-1.04,1.05h-6.54c-.53,0-1.03-.49-1.03-1.05V21.88Z"/><path class="cls-1" d="M331.91,20.3c5.45,0,9.48,1.69,13.19,5.08,.48,.44,.48,1.1,.04,1.53l-4.24,4.42c-.39,.39-.99,.39-1.37,0-2.02-1.8-4.68-2.78-7.35-2.78-6.16,0-10.69,5.14-10.69,11.28s4.58,11.1,10.74,11.1c2.55,0,5.34-.92,7.3-2.62,.38-.34,1.09-.34,1.42,.06l4.25,4.54c.38,.38,.33,1.09-.06,1.48-3.71,3.61-8.38,5.3-13.23,5.3-10.91,0-19.69-8.7-19.69-19.64s8.77-19.75,19.69-19.75Z"/><path class="cls-1" d="M369.8,20.3c5.46,0,9.49,1.69,13.19,5.08,.5,.44,.5,1.1,.05,1.53l-4.25,4.42c-.38,.39-.98,.39-1.35,0-2.04-1.8-4.7-2.78-7.37-2.78-6.16,0-10.68,5.14-10.68,11.28s4.58,11.1,10.74,11.1c2.56,0,5.35-.92,7.32-2.62,.37-.34,1.08-.34,1.41,.06l4.25,4.54c.39,.38,.33,1.09-.06,1.48-3.7,3.61-8.39,5.3-13.25,5.3-10.9,0-19.67-8.7-19.67-19.64s8.77-19.75,19.67-19.75Z"/><path class="cls-1" d="M407.6,20.3c10.91,0,19.62,8.79,19.62,19.75s-8.71,19.64-19.62,19.64-19.57-8.7-19.57-19.64,8.68-19.75,19.57-19.75Zm0,30.63c6,0,10.91-4.92,10.91-10.88s-4.91-11.01-10.91-11.01-10.85,4.99-10.85,11.01,4.91,10.88,10.85,10.88Z"/></g><path class="cls-1" d="M66.53,67.7l-2.54-2.9c-.08-.1-.08-.1-.17-.16l-12.7-14.57s-.06-.07-.07-.09l-2.55-2.91c-.21-.25-.53-.39-.85-.41-.32-.04-.64,.11-.88,.34-2.07,2.07-4.9,3.11-7.79,2.91-5.49-.41-9.63-5.23-9.23-10.74,.4-5.48,5.21-9.69,10.7-9.29,2.01,.14,3.91,.89,5.49,2.15,.5,.4,1.22,.32,1.63-.15l2.05-2.34c.21-.25,.32-.57,.29-.89-.03-.32-.18-.62-.43-.82-2.44-1.98-5.49-3.21-8.63-3.44-.39-.01-.76-.04-1.15-.04-8.06,0-14.82,6.33-15.44,14.39-.3,4.14,1.03,8.14,3.73,11.3,2.7,3.14,6.46,5.05,10.58,5.36,2.85,.21,5.74-.4,8.33-1.76l12.5,14.33c-5.74,4.05-12.42,6.22-19.37,6.26l-.31,.02c-18.71,0-34.06-15.28-34.24-34.06C5.31,21.24,20.53,5.67,39.42,5.5h.32c6.69,0,13.16,1.92,18.7,5.56l-4.57,5.21c-4.26-2.59-9.16-3.95-14.15-3.95h-.26c-7.32,.08-14.18,3-19.32,8.25-5.15,5.26-7.95,12.2-7.87,19.55,.14,15.05,12.44,27.3,27.44,27.3h.26c2.13-.03,4.27-.29,6.36-.82,.4-.09,.73-.4,.84-.8,.13-.39,.04-.83-.23-1.13l-2.35-2.69c-.28-.32-.7-.47-1.11-.4-1.19,.22-2.41,.34-3.55,.35h-.22c-12,0-21.85-9.8-21.96-21.86-.04-5.88,2.19-11.43,6.31-15.65,4.11-4.2,9.59-6.56,15.44-6.6h.21c5.15,0,10.17,1.83,14.12,5.14,.49,.41,1.23,.37,1.66-.12l2.54-2.91c.06-.06,.11-.12,.15-.21l4.78-5.44s.11-.08,.13-.13l2.57-2.94c.22-.24,.33-.54,.3-.87-.02-.32-.18-.61-.41-.82C58.41,3.38,49.25,0,39.74,0h-.38C28.76,.1,18.82,4.33,11.39,11.95,3.94,19.57-.11,29.6,0,40.23c.2,21.79,18.01,39.52,39.71,39.52h.36c9.75-.09,19.1-3.77,26.36-10.38,.48-.44,.52-1.18,.1-1.67Z"/></g></g></svg>