<svg xmlns="http://www.w3.org/2000/svg" width="324" height="392" viewBox="0 0 324 392" style="background:#ff0082">
  <path fill="#FFFFFF" fill-rule="evenodd" d="M3.297996,115.252312 L96.356628,115.252312 L96.356628,345.46764 L47.032488,345.46764 L47.032488,159.056352 L3.297996,159.056352 L3.297996,115.252312 Z M174.126348,128.097368 C189.360504,116.024944 208.37574,109.983048 231.178536,109.983048 C253.9755,109.983048 272.939868,116.024944 288.066132,128.097368 C303.192396,140.17528 310.756176,155.052856 310.756176,172.724216 C310.756176,190.401456 303.958008,205.60792 290.368476,218.339296 C309.440088,233.05184 318.977028,252.375088 318.977028,276.304728 C318.977028,296.508016 310.864068,313.520816 294.643332,327.35332 C278.417088,341.186608 257.264424,348.102664 231.178536,348.102664 C205.087788,348.102664 183.9348,341.186608 167.714064,327.35332 C151.488144,313.520816 143.380368,296.508016 143.380368,276.304728 C143.380368,252.375088 152.916012,233.05184 171.988596,218.339296 C158.178096,205.386048 151.272036,190.128232 151.272036,172.559184 C151.272036,154.996408 158.887008,140.17528 174.126348,128.097368 Z M206.187444,297.5476 C213.858144,302.709456 222.186888,305.287248 231.178536,305.287248 C240.165,305.287248 248.493096,302.709456 256.169952,297.5476 C263.840652,292.391232 267.678756,284.867576 267.678756,274.987608 C267.678756,265.107248 263.948544,257.531848 256.499136,252.262192 C249.043572,246.992144 240.601428,244.357512 231.178536,244.357512 C221.749812,244.357512 213.30864,246.992144 205.85826,252.262192 C198.403668,257.531848 194.678316,265.107248 194.678316,274.987608 C194.678316,284.867576 198.510588,292.391232 206.187444,297.5476 Z M209.310804,196.931392 C215.558496,202.201048 222.844608,204.83568 231.178536,204.83568 C239.507604,204.83568 246.797604,202.201048 253.045296,196.931392 C259.293312,191.662128 262.417644,185.131408 262.417644,177.335312 C262.417644,169.54392 259.344828,163.008496 253.209888,157.73884 C247.070412,152.469184 239.727924,149.83416 231.178536,149.83416 C222.6285,149.83416 215.2818,152.469184 209.147184,157.73884 C203.006412,163.008496 199.939752,169.54392 199.939752,177.335312 C199.939752,185.131408 203.063112,191.662128 209.310804,196.931392 Z M3.959928,390.99844 L3.959928,372.109136 L320.720472,372.109136 L320.720472,390.99844 L3.959928,390.99844 Z M27.387396,19.522384 C25.6041,20.992384 24.712452,22.936312 24.712452,25.358088 C24.712452,27.780648 25.801092,29.70576 27.98226,31.1346 C30.161484,32.56344 35.195472,34.251784 43.084224,36.196104 C50.972004,38.143168 57.096576,41.061216 61.456968,44.95064 C65.816388,48.842024 67.997556,54.519752 67.997556,61.982256 C67.997556,69.44672 65.20338,75.500768 59.614056,80.145968 C54.024732,84.791168 46.670904,87.113376 37.555488,87.113376 C24.394284,87.113376 12.54204,82.230232 1.998432,72.463552 L13.057848,58.885456 C22.016124,66.746232 30.300804,70.676816 37.911888,70.676816 C41.319072,70.676816 43.994988,69.943384 45.938988,68.473776 C47.879748,67.005344 48.852396,65.019472 48.852396,62.51812 C48.852396,60.01716 47.821104,58.032856 45.76014,56.563248 C43.698204,55.095208 39.61548,53.606392 33.511968,52.0968 C23.838948,49.794976 16.763112,46.79696 12.285432,43.104712 C7.804836,39.412072 5.565996,33.616744 5.565996,25.715592 C5.565996,17.815224 8.3997,11.720408 14.068728,7.43232 C19.735812,3.145016 26.811972,1.000776 35.295264,1.000776 C40.84344,1.000776 46.39356,1.953728 51.944328,3.859632 C57.492504,5.765144 62.328528,8.465632 66.451752,11.958744 L57.057048,25.536448 C49.842864,20.057856 42.389244,17.318168 34.700724,17.318168 C31.60944,17.318168 29.171664,18.053168 27.387396,19.522384 Z M153.735084,74.666984 C145.331172,82.885264 134.985528,86.994208 122.697828,86.994208 C110.408184,86.994208 100.062864,82.885264 91.660896,74.666984 C83.256012,66.448704 79.055028,56.22652 79.055028,43.997688 C79.055028,31.770424 83.256012,21.545888 91.660896,13.328392 C100.062864,5.110504 110.408184,1.000776 122.697828,1.000776 C134.985528,1.000776 145.331172,5.110504 153.735084,13.328392 C162.1377,21.545888 166.340628,31.770424 166.340628,43.997688 C166.340628,56.22652 162.1377,66.448704 153.735084,74.666984 Z M147.432636,44.057272 C147.432636,36.633576 145.054476,30.300424 140.297184,25.060168 C135.540864,19.81952 129.692988,17.199 122.757444,17.199 C115.818984,17.199 109.974024,19.81952 105.216732,25.060168 C100.460412,30.300424 98.082252,36.633576 98.082252,44.057272 C98.082252,51.482536 100.460412,57.794912 105.216732,62.994792 C109.974024,68.19624 115.818984,70.796376 122.757444,70.796376 C129.692988,70.796376 135.540864,68.19624 140.297184,62.994792 C145.054476,57.794912 147.432636,51.482536 147.432636,44.057272 Z M200.765628,19.522384 C198.982332,20.992384 198.090684,22.936312 198.090684,25.358088 C198.090684,27.780648 199.179,29.70576 201.360492,31.1346 C203.539716,32.56344 208.573704,34.251784 216.462456,36.196104 C224.350236,38.143168 230.474808,41.061216 234.8352,44.95064 C239.19462,48.842024 241.375788,54.519752 241.375788,61.982256 C241.375788,69.44672 238.581612,75.500768 232.992288,80.145968 C227.402964,84.791168 220.049136,87.113376 210.93372,87.113376 C197.772516,87.113376 185.920272,82.230232 175.376664,72.463552 L186.436404,58.885456 C195.394356,66.746232 203.679036,70.676816 211.29012,70.676816 C214.697304,70.676816 217.37322,69.943384 219.31722,68.473776 C221.25798,67.005344 222.230628,65.019472 222.230628,62.51812 C222.230628,60.01716 221.199336,58.032856 219.138372,56.563248 C217.076436,55.095208 212.993712,53.606392 206.8902,52.0968 C197.21718,49.794976 190.141344,46.79696 185.663664,43.104712 C181.183068,39.412072 178.944228,33.616744 178.944228,25.715592 C178.944228,17.815224 181.777932,11.720408 187.44696,7.43232 C193.114368,3.145016 200.18988,1.000776 208.67382,1.000776 C214.221672,1.000776 219.771792,1.953728 225.32256,3.859632 C230.870736,5.765144 235.70676,8.465632 239.82966,11.958744 L230.43528,25.536448 C223.221096,20.057856 215.767476,17.318168 208.078956,17.318168 C204.987672,17.318168 202.549896,18.053168 200.765628,19.522384 Z M252.434556,86.160424 L252.434556,73.416112 L295.958124,18.986128 L253.861452,18.986128 L253.861452,2.907072 L321.287472,2.907072 L321.287472,15.77016 L277.883136,69.9622 L322.001568,69.9622 L322.001568,86.160424 L252.434556,86.160424 Z"/>
</svg>
